<svg width="22" height="22" viewBox="0 0 22 22" fill="none" xmlns="http://www.w3.org/2000/svg">
<path fill-rule="evenodd" clip-rule="evenodd" d="M0.25 11C0.25 16.9371 5.06294 21.75 11 21.75C16.9371 21.75 21.75 16.9371 21.75 11C21.75 5.06294 16.9371 0.25 11 0.25C5.06294 0.25 0.25 5.06294 0.25 11ZM10.6819 10.0273C10.9289 10.0605 11.2707 10.1494 11.5607 10.4394C11.8507 10.7294 11.9396 11.0711 11.9728 11.3182C12.0003 11.5228 12.0001 11.7608 12 11.9606L12 12V16C12 16.5523 11.5523 17 11 17C10.4477 17 10 16.5523 10 16V12C9.44771 12 9 11.5523 9 11C9 10.4477 9.44771 10 10 10L10.0394 10C10.2393 9.99989 10.4772 9.99974 10.6819 10.0273ZM10.9954 6C10.4456 6 9.99991 6.44772 9.99991 7C9.99991 7.55228 10.4456 8 10.9954 8H11.0044C11.5542 8 11.9999 7.55228 11.9999 7C11.9999 6.44772 11.5542 6 11.0044 6H10.9954Z" fill="#DB6E00"/>
</svg>
